<svg width="45" height="40" viewBox="0 0 45 40" xmlns="http://www.w3.org/2000/svg">
<g clip-path="url(#clip0_12_122)">
<path d="M44.7805 31.4586L33.8594 6.45859C33.4711 5.56953 32.625 5 31.6937 5H24.0695L24.2609 6.80938C24.3 7.17813 24.0101 7.5 23.639 7.5H21.3609C20.9898 7.5 20.7 7.17813 20.7391 6.80938L20.9305 5H13.3062C12.3742 5 11.5281 5.56953 11.1398 6.45859L0.21874 31.4586C-0.503917 33.1141 0.649208 35 2.38593 35H17.7641L18.5695 27.3688C18.6367 26.7328 19.1726 26.25 19.8125 26.25H25.1875C25.8273 26.25 26.3633 26.7328 26.4305 27.3688L27.2359 35H42.6141C44.3508 35 45.5039 33.1141 44.7805 31.4586ZM20.3437 10.5594C20.36 10.4058 20.4325 10.2636 20.5473 10.1603C20.6621 10.057 20.8112 9.99992 20.9656 10H24.0351C24.3547 10 24.6234 10.2414 24.657 10.5594L25.0164 13.9641C25.075 14.518 24.6406 15 24.0844 15H20.9172C20.3601 15 19.9266 14.518 19.9851 13.9641L20.3437 10.5594ZM24.6594 23.75H20.3398C19.5976 23.75 19.0187 23.107 19.0969 22.3688L19.493 18.6188C19.5601 17.9828 20.0961 17.5 20.7359 17.5H24.2633C24.9031 17.5 25.4391 17.9828 25.5062 18.6188L25.9023 22.3688C25.9805 23.107 25.4016 23.75 24.6594 23.75Z"/>
</g>
<defs>
<clipPath id="clip0_12_122">
<rect width="45" height="40"/>
</clipPath>
</defs>
</svg>
