<svg width="45" height="45" viewBox="0 0 45 45" xmlns="http://www.w3.org/2000/svg">
<g clip-path="url(#clip0_19_174)">
<path fill-rule="evenodd" clip-rule="evenodd" d="M45 22.5C45 34.9264 34.9264 45 22.5 45C10.0736 45 0 34.9264 0 22.5C0 10.0736 10.0736 0 22.5 0C34.9264 0 45 10.0736 45 22.5ZM23.3063 16.6105C21.1179 17.5207 16.744 19.4047 10.1848 22.2624C9.11972 22.686 8.56177 23.1004 8.51098 23.5056C8.42512 24.1903 9.28262 24.4599 10.4503 24.8271C10.6091 24.8771 10.7737 24.9289 10.9424 24.9836C12.0912 25.3571 13.6366 25.794 14.44 25.8112C15.1687 25.827 15.982 25.5266 16.88 24.9099C23.0085 20.7731 26.172 18.6821 26.3706 18.6371C26.5108 18.6053 26.7049 18.5653 26.8365 18.6822C26.9679 18.7991 26.9552 19.0206 26.9411 19.08C26.8562 19.4421 23.4902 22.5714 21.7483 24.1909C21.2053 24.6956 20.8202 25.0537 20.7414 25.1355C20.565 25.3189 20.3852 25.4921 20.2125 25.6586C19.1452 26.6874 18.3449 27.459 20.2568 28.719C21.1757 29.3244 21.9109 29.8251 22.6444 30.3246C23.4454 30.8702 24.2443 31.4143 25.278 32.0919C25.5414 32.2646 25.7929 32.4439 26.0379 32.6184C26.9702 33.2831 27.8077 33.8801 28.8424 33.7849C29.4437 33.7296 30.0647 33.1643 30.3801 31.4783C31.1254 27.4935 32.5905 18.8597 32.9291 15.3018C32.9589 14.9901 32.9216 14.5912 32.8916 14.4161C32.8616 14.241 32.799 13.9915 32.5714 13.8067C32.3018 13.588 31.8857 13.5419 31.6995 13.5452C30.8531 13.5601 29.5549 14.0115 23.3063 16.6105Z"/>
</g>
<defs>
<clipPath id="clip0_19_174">
<rect width="45" height="45" />
</clipPath>
</defs>
</svg>
